<svg width="800" height="800" viewBox="0 0 800 800" fill="none" xmlns="http://www.w3.org/2000/svg">
<g clip-path="url(#clip0_650_84)">
<path d="M0.000411272 3.28989C1.81714 3.28989 3.28989 1.81714 3.28989 0.000411272C3.28989 -1.81631 1.81714 -3.28906 0.000411272 -3.28906C-1.81631 -3.28906 -3.28906 -1.81631 -3.28906 0.000411272C-3.28906 1.81714 -1.81631 3.28989 0.000411272 3.28989Z" fill="black"/>
<path d="M66.6664 3.28989C68.4832 3.28989 69.9559 1.81714 69.9559 0.000411272C69.9559 -1.81631 68.4832 -3.28906 66.6664 -3.28906C64.8497 -3.28906 63.377 -1.81631 63.377 0.000411272C63.377 1.81714 64.8497 3.28989 66.6664 3.28989Z" fill="black"/>
<path d="M133.334 3.28989C135.151 3.28989 136.624 1.81714 136.624 0.000411272C136.624 -1.81631 135.151 -3.28906 133.334 -3.28906C131.518 -3.28906 130.045 -1.81631 130.045 0.000411272C130.045 1.81714 131.518 3.28989 133.334 3.28989Z" fill="black"/>
<path d="M200 3.28989C201.817 3.28989 203.29 1.81714 203.29 0.000411272C203.29 -1.81631 201.817 -3.28906 200 -3.28906C198.184 -3.28906 196.711 -1.81631 196.711 0.000411272C196.711 1.81714 198.184 3.28989 200 3.28989Z" fill="black"/>
<path d="M266.666 3.28989C268.483 3.28989 269.956 1.81714 269.956 0.000411272C269.956 -1.81631 268.483 -3.28906 266.666 -3.28906C264.85 -3.28906 263.377 -1.81631 263.377 0.000411272C263.377 1.81714 264.85 3.28989 266.666 3.28989Z" fill="black"/>
<path d="M333.334 3.28989C335.151 3.28989 336.624 1.81714 336.624 0.000411272C336.624 -1.81631 335.151 -3.28906 333.334 -3.28906C331.518 -3.28906 330.045 -1.81631 330.045 0.000411272C330.045 1.81714 331.518 3.28989 333.334 3.28989Z" fill="black"/>
<path d="M400 3.28989C401.817 3.28989 403.29 1.81714 403.29 0.000411272C403.29 -1.81631 401.817 -3.28906 400 -3.28906C398.184 -3.28906 396.711 -1.81631 396.711 0.000411272C396.711 1.81714 398.184 3.28989 400 3.28989Z" fill="black"/>
<path d="M466.666 3.28989C468.483 3.28989 469.956 1.81714 469.956 0.000411272C469.956 -1.81631 468.483 -3.28906 466.666 -3.28906C464.85 -3.28906 463.377 -1.81631 463.377 0.000411272C463.377 1.81714 464.85 3.28989 466.666 3.28989Z" fill="black"/>
<path d="M533.334 3.28989C535.151 3.28989 536.624 1.81714 536.624 0.000411272C536.624 -1.81631 535.151 -3.28906 533.334 -3.28906C531.518 -3.28906 530.045 -1.81631 530.045 0.000411272C530.045 1.81714 531.518 3.28989 533.334 3.28989Z" fill="black"/>
<path d="M600 3.28989C601.817 3.28989 603.29 1.81714 603.29 0.000411272C603.29 -1.81631 601.817 -3.28906 600 -3.28906C598.184 -3.28906 596.711 -1.81631 596.711 0.000411272C596.711 1.81714 598.184 3.28989 600 3.28989Z" fill="black"/>
<path d="M666.666 3.28989C668.483 3.28989 669.956 1.81714 669.956 0.000411272C669.956 -1.81631 668.483 -3.28906 666.666 -3.28906C664.85 -3.28906 663.377 -1.81631 663.377 0.000411272C663.377 1.81714 664.85 3.28989 666.666 3.28989Z" fill="black"/>
<path d="M733.334 3.28989C735.151 3.28989 736.624 1.81714 736.624 0.000411272C736.624 -1.81631 735.151 -3.28906 733.334 -3.28906C731.518 -3.28906 730.045 -1.81631 730.045 0.000411272C730.045 1.81714 731.518 3.28989 733.334 3.28989Z" fill="black"/>
<path d="M800 3.28989C801.817 3.28989 803.29 1.81714 803.29 0.000411272C803.29 -1.81631 801.817 -3.28906 800 -3.28906C798.184 -3.28906 796.711 -1.81631 796.711 0.000411272C796.711 1.81714 798.184 3.28989 800 3.28989Z" fill="black"/>
<path d="M0.000411272 69.9559C1.81714 69.9559 3.28989 68.4832 3.28989 66.6664C3.28989 64.8497 1.81714 63.377 0.000411272 63.377C-1.81631 63.377 -3.28906 64.8497 -3.28906 66.6664C-3.28906 68.4832 -1.81631 69.9559 0.000411272 69.9559Z" fill="black"/>
<path d="M66.6664 69.9559C68.4832 69.9559 69.9559 68.4832 69.9559 66.6664C69.9559 64.8497 68.4832 63.377 66.6664 63.377C64.8497 63.377 63.377 64.8497 63.377 66.6664C63.377 68.4832 64.8497 69.9559 66.6664 69.9559Z" fill="black"/>
<path d="M133.334 69.9559C135.151 69.9559 136.624 68.4832 136.624 66.6664C136.624 64.8497 135.151 63.377 133.334 63.377C131.518 63.377 130.045 64.8497 130.045 66.6664C130.045 68.4832 131.518 69.9559 133.334 69.9559Z" stroke="black"/>
<path d="M200 69.9559C201.817 69.9559 203.29 68.4832 203.29 66.6664C203.29 64.8497 201.817 63.377 200 63.377C198.184 63.377 196.711 64.8497 196.711 66.6664C196.711 68.4832 198.184 69.9559 200 69.9559Z" fill="black"/>
<path d="M266.666 69.9559C268.483 69.9559 269.956 68.4832 269.956 66.6664C269.956 64.8497 268.483 63.377 266.666 63.377C264.85 63.377 263.377 64.8497 263.377 66.6664C263.377 68.4832 264.85 69.9559 266.666 69.9559Z" fill="black"/>
<path d="M333.334 69.9559C335.151 69.9559 336.624 68.4832 336.624 66.6664C336.624 64.8497 335.151 63.377 333.334 63.377C331.518 63.377 330.045 64.8497 330.045 66.6664C330.045 68.4832 331.518 69.9559 333.334 69.9559Z" stroke="black"/>
<path d="M400 69.9559C401.817 69.9559 403.29 68.4832 403.29 66.6664C403.29 64.8497 401.817 63.377 400 63.377C398.184 63.377 396.711 64.8497 396.711 66.6664C396.711 68.4832 398.184 69.9559 400 69.9559Z" stroke="black"/>
<path d="M466.666 69.9559C468.483 69.9559 469.956 68.4832 469.956 66.6664C469.956 64.8497 468.483 63.377 466.666 63.377C464.85 63.377 463.377 64.8497 463.377 66.6664C463.377 68.4832 464.85 69.9559 466.666 69.9559Z" fill="black"/>
<path d="M533.334 69.9559C535.151 69.9559 536.624 68.4832 536.624 66.6664C536.624 64.8497 535.151 63.377 533.334 63.377C531.518 63.377 530.045 64.8497 530.045 66.6664C530.045 68.4832 531.518 69.9559 533.334 69.9559Z" stroke="black"/>
<path d="M600 69.9559C601.817 69.9559 603.29 68.4832 603.29 66.6664C603.29 64.8497 601.817 63.377 600 63.377C598.184 63.377 596.711 64.8497 596.711 66.6664C596.711 68.4832 598.184 69.9559 600 69.9559Z" fill="black"/>
<path d="M666.666 69.9559C668.483 69.9559 669.956 68.4832 669.956 66.6664C669.956 64.8497 668.483 63.377 666.666 63.377C664.85 63.377 663.377 64.8497 663.377 66.6664C663.377 68.4832 664.85 69.9559 666.666 69.9559Z" fill="black"/>
<path d="M733.334 69.9559C735.151 69.9559 736.624 68.4832 736.624 66.6664C736.624 64.8497 735.151 63.377 733.334 63.377C731.518 63.377 730.045 64.8497 730.045 66.6664C730.045 68.4832 731.518 69.9559 733.334 69.9559Z" fill="black"/>
<path d="M800 69.9559C801.817 69.9559 803.29 68.4832 803.29 66.6664C803.29 64.8497 801.817 63.377 800 63.377C798.184 63.377 796.711 64.8497 796.711 66.6664C796.711 68.4832 798.184 69.9559 800 69.9559Z" fill="black"/>
<path d="M0.000411272 136.624C1.81714 136.624 3.28989 135.151 3.28989 133.334C3.28989 131.518 1.81714 130.045 0.000411272 130.045C-1.81631 130.045 -3.28906 131.518 -3.28906 133.334C-3.28906 135.151 -1.81631 136.624 0.000411272 136.624Z" fill="black"/>
<path d="M66.6664 136.624C68.4832 136.624 69.9559 135.151 69.9559 133.334C69.9559 131.518 68.4832 130.045 66.6664 130.045C64.8497 130.045 63.377 131.518 63.377 133.334C63.377 135.151 64.8497 136.624 66.6664 136.624Z" fill="black"/>
<path d="M133.334 136.624C135.151 136.624 136.624 135.151 136.624 133.334C136.624 131.518 135.151 130.045 133.334 130.045C131.518 130.045 130.045 131.518 130.045 133.334C130.045 135.151 131.518 136.624 133.334 136.624Z" fill="black"/>
<path d="M200 136.624C201.817 136.624 203.29 135.151 203.29 133.334C203.29 131.518 201.817 130.045 200 130.045C198.184 130.045 196.711 131.518 196.711 133.334C196.711 135.151 198.184 136.624 200 136.624Z" stroke="black"/>
<path d="M266.666 136.624C268.483 136.624 269.956 135.151 269.956 133.334C269.956 131.518 268.483 130.045 266.666 130.045C264.85 130.045 263.377 131.518 263.377 133.334C263.377 135.151 264.85 136.624 266.666 136.624Z" fill="black"/>
<path d="M333.334 136.624C335.151 136.624 336.624 135.151 336.624 133.334C336.624 131.518 335.151 130.045 333.334 130.045C331.518 130.045 330.045 131.518 330.045 133.334C330.045 135.151 331.518 136.624 333.334 136.624Z" fill="black"/>
<path d="M400 136.624C401.817 136.624 403.29 135.151 403.29 133.334C403.29 131.518 401.817 130.045 400 130.045C398.184 130.045 396.711 131.518 396.711 133.334C396.711 135.151 398.184 136.624 400 136.624Z" stroke="black"/>
<path d="M466.666 136.624C468.483 136.624 469.956 135.151 469.956 133.334C469.956 131.518 468.483 130.045 466.666 130.045C464.85 130.045 463.377 131.518 463.377 133.334C463.377 135.151 464.85 136.624 466.666 136.624Z" fill="black"/>
<path d="M533.334 136.624C535.151 136.624 536.624 135.151 536.624 133.334C536.624 131.518 535.151 130.045 533.334 130.045C531.518 130.045 530.045 131.518 530.045 133.334C530.045 135.151 531.518 136.624 533.334 136.624Z" fill="black"/>
<path d="M600 136.624C601.817 136.624 603.29 135.151 603.29 133.334C603.29 131.518 601.817 130.045 600 130.045C598.184 130.045 596.711 131.518 596.711 133.334C596.711 135.151 598.184 136.624 600 136.624Z" fill="black"/>
<path d="M666.666 136.624C668.483 136.624 669.956 135.151 669.956 133.334C669.956 131.518 668.483 130.045 666.666 130.045C664.85 130.045 663.377 131.518 663.377 133.334C663.377 135.151 664.85 136.624 666.666 136.624Z" fill="black"/>
<path d="M733.334 136.624C735.151 136.624 736.624 135.151 736.624 133.334C736.624 131.518 735.151 130.045 733.334 130.045C731.518 130.045 730.045 131.518 730.045 133.334C730.045 135.151 731.518 136.624 733.334 136.624Z" fill="black"/>
<path d="M800 136.624C801.817 136.624 803.29 135.151 803.29 133.334C803.29 131.518 801.817 130.045 800 130.045C798.184 130.045 796.711 131.518 796.711 133.334C796.711 135.151 798.184 136.624 800 136.624Z" fill="black"/>
<path d="M0.000411272 203.29C1.81714 203.29 3.28989 201.817 3.28989 200C3.28989 198.184 1.81714 196.711 0.000411272 196.711C-1.81631 196.711 -3.28906 198.184 -3.28906 200C-3.28906 201.817 -1.81631 203.29 0.000411272 203.29Z" fill="black"/>
<path d="M66.6664 203.29C68.4832 203.29 69.9559 201.817 69.9559 200C69.9559 198.184 68.4832 196.711 66.6664 196.711C64.8497 196.711 63.377 198.184 63.377 200C63.377 201.817 64.8497 203.29 66.6664 203.29Z" fill="black"/>
<path d="M133.334 203.29C135.151 203.29 136.624 201.817 136.624 200C136.624 198.184 135.151 196.711 133.334 196.711C131.518 196.711 130.045 198.184 130.045 200C130.045 201.817 131.518 203.29 133.334 203.29Z" stroke="black"/>
<path d="M200 203.29C201.817 203.29 203.29 201.817 203.29 200C203.29 198.184 201.817 196.711 200 196.711C198.184 196.711 196.711 198.184 196.711 200C196.711 201.817 198.184 203.29 200 203.29Z" fill="black"/>
<path d="M266.666 203.29C268.483 203.29 269.956 201.817 269.956 200C269.956 198.184 268.483 196.711 266.666 196.711C264.85 196.711 263.377 198.184 263.377 200C263.377 201.817 264.85 203.29 266.666 203.29Z" stroke="black"/>
<path d="M333.334 203.29C335.151 203.29 336.624 201.817 336.624 200C336.624 198.184 335.151 196.711 333.334 196.711C331.518 196.711 330.045 198.184 330.045 200C330.045 201.817 331.518 203.29 333.334 203.29Z" fill="black"/>
<path d="M400 203.29C401.817 203.29 403.29 201.817 403.29 200C403.29 198.184 401.817 196.711 400 196.711C398.184 196.711 396.711 198.184 396.711 200C396.711 201.817 398.184 203.29 400 203.29Z" stroke="black"/>
<path d="M466.666 203.29C468.483 203.29 469.956 201.817 469.956 200C469.956 198.184 468.483 196.711 466.666 196.711C464.85 196.711 463.377 198.184 463.377 200C463.377 201.817 464.85 203.29 466.666 203.29Z" fill="black"/>
<path d="M533.334 203.29C535.151 203.29 536.624 201.817 536.624 200C536.624 198.184 535.151 196.711 533.334 196.711C531.518 196.711 530.045 198.184 530.045 200C530.045 201.817 531.518 203.29 533.334 203.29Z" fill="black"/>
<path d="M600 203.29C601.817 203.29 603.29 201.817 603.29 200C603.29 198.184 601.817 196.711 600 196.711C598.184 196.711 596.711 198.184 596.711 200C596.711 201.817 598.184 203.29 600 203.29Z" fill="black"/>
<path d="M666.666 203.29C668.483 203.29 669.956 201.817 669.956 200C669.956 198.184 668.483 196.711 666.666 196.711C664.85 196.711 663.377 198.184 663.377 200C663.377 201.817 664.85 203.29 666.666 203.29Z" stroke="black"/>
<path d="M733.334 203.29C735.151 203.29 736.624 201.817 736.624 200C736.624 198.184 735.151 196.711 733.334 196.711C731.518 196.711 730.045 198.184 730.045 200C730.045 201.817 731.518 203.29 733.334 203.29Z" stroke="black"/>
<path d="M800 203.29C801.817 203.29 803.29 201.817 803.29 200C803.29 198.184 801.817 196.711 800 196.711C798.184 196.711 796.711 198.184 796.711 200C796.711 201.817 798.184 203.29 800 203.29Z" fill="black"/>
<path d="M0.000411272 269.956C1.81714 269.956 3.28989 268.483 3.28989 266.666C3.28989 264.85 1.81714 263.377 0.000411272 263.377C-1.81631 263.377 -3.28906 264.85 -3.28906 266.666C-3.28906 268.483 -1.81631 269.956 0.000411272 269.956Z" fill="black"/>
<path d="M66.6664 269.956C68.4832 269.956 69.9559 268.483 69.9559 266.666C69.9559 264.85 68.4832 263.377 66.6664 263.377C64.8497 263.377 63.377 264.85 63.377 266.666C63.377 268.483 64.8497 269.956 66.6664 269.956Z" fill="black"/>
<path d="M133.334 269.956C135.151 269.956 136.624 268.483 136.624 266.666C136.624 264.85 135.151 263.377 133.334 263.377C131.518 263.377 130.045 264.85 130.045 266.666C130.045 268.483 131.518 269.956 133.334 269.956Z" fill="black"/>
<path d="M200 269.956C201.817 269.956 203.29 268.483 203.29 266.666C203.29 264.85 201.817 263.377 200 263.377C198.184 263.377 196.711 264.85 196.711 266.666C196.711 268.483 198.184 269.956 200 269.956Z" stroke="black"/>
<path d="M266.666 269.956C268.483 269.956 269.956 268.483 269.956 266.666C269.956 264.85 268.483 263.377 266.666 263.377C264.85 263.377 263.377 264.85 263.377 266.666C263.377 268.483 264.85 269.956 266.666 269.956Z" fill="black"/>
<path d="M333.334 269.956C335.151 269.956 336.624 268.483 336.624 266.666C336.624 264.85 335.151 263.377 333.334 263.377C331.518 263.377 330.045 264.85 330.045 266.666C330.045 268.483 331.518 269.956 333.334 269.956Z" fill="black"/>
<path d="M400 269.956C401.817 269.956 403.29 268.483 403.29 266.666C403.29 264.85 401.817 263.377 400 263.377C398.184 263.377 396.711 264.85 396.711 266.666C396.711 268.483 398.184 269.956 400 269.956Z" fill="black"/>
<path d="M466.666 269.956C468.483 269.956 469.956 268.483 469.956 266.666C469.956 264.85 468.483 263.377 466.666 263.377C464.85 263.377 463.377 264.85 463.377 266.666C463.377 268.483 464.85 269.956 466.666 269.956Z" stroke="black"/>
<path d="M533.334 269.956C535.151 269.956 536.624 268.483 536.624 266.666C536.624 264.85 535.151 263.377 533.334 263.377C531.518 263.377 530.045 264.85 530.045 266.666C530.045 268.483 531.518 269.956 533.334 269.956Z" fill="black"/>
<path d="M600 269.956C601.817 269.956 603.29 268.483 603.29 266.666C603.29 264.85 601.817 263.377 600 263.377C598.184 263.377 596.711 264.85 596.711 266.666C596.711 268.483 598.184 269.956 600 269.956Z" fill="black"/>
<path d="M666.666 269.956C668.483 269.956 669.956 268.483 669.956 266.666C669.956 264.85 668.483 263.377 666.666 263.377C664.85 263.377 663.377 264.85 663.377 266.666C663.377 268.483 664.85 269.956 666.666 269.956Z" fill="black"/>
<path d="M733.334 269.956C735.151 269.956 736.624 268.483 736.624 266.666C736.624 264.85 735.151 263.377 733.334 263.377C731.518 263.377 730.045 264.85 730.045 266.666C730.045 268.483 731.518 269.956 733.334 269.956Z" fill="black"/>
<path d="M800 269.956C801.817 269.956 803.29 268.483 803.29 266.666C803.29 264.85 801.817 263.377 800 263.377C798.184 263.377 796.711 264.85 796.711 266.666C796.711 268.483 798.184 269.956 800 269.956Z" fill="black"/>
<path d="M0.000411272 336.624C1.81714 336.624 3.28989 335.151 3.28989 333.334C3.28989 331.518 1.81714 330.045 0.000411272 330.045C-1.81631 330.045 -3.28906 331.518 -3.28906 333.334C-3.28906 335.151 -1.81631 336.624 0.000411272 336.624Z" fill="black"/>
<path d="M66.6664 336.624C68.4832 336.624 69.9559 335.151 69.9559 333.334C69.9559 331.518 68.4832 330.045 66.6664 330.045C64.8497 330.045 63.377 331.518 63.377 333.334C63.377 335.151 64.8497 336.624 66.6664 336.624Z" fill="black"/>
<path d="M133.334 336.624C135.151 336.624 136.624 335.151 136.624 333.334C136.624 331.518 135.151 330.045 133.334 330.045C131.518 330.045 130.045 331.518 130.045 333.334C130.045 335.151 131.518 336.624 133.334 336.624Z" fill="black"/>
<path d="M200 336.624C201.817 336.624 203.29 335.151 203.29 333.334C203.29 331.518 201.817 330.045 200 330.045C198.184 330.045 196.711 331.518 196.711 333.334C196.711 335.151 198.184 336.624 200 336.624Z" fill="black"/>
<path d="M266.666 336.624C268.483 336.624 269.956 335.151 269.956 333.334C269.956 331.518 268.483 330.045 266.666 330.045C264.85 330.045 263.377 331.518 263.377 333.334C263.377 335.151 264.85 336.624 266.666 336.624Z" fill="black"/>
<path d="M333.334 336.624C335.151 336.624 336.624 335.151 336.624 333.334C336.624 331.518 335.151 330.045 333.334 330.045C331.518 330.045 330.045 331.518 330.045 333.334C330.045 335.151 331.518 336.624 333.334 336.624Z" stroke="black"/>
<path d="M400 336.624C401.817 336.624 403.29 335.151 403.29 333.334C403.29 331.518 401.817 330.045 400 330.045C398.184 330.045 396.711 331.518 396.711 333.334C396.711 335.151 398.184 336.624 400 336.624Z" stroke="black"/>
<path d="M466.666 336.624C468.483 336.624 469.956 335.151 469.956 333.334C469.956 331.518 468.483 330.045 466.666 330.045C464.85 330.045 463.377 331.518 463.377 333.334C463.377 335.151 464.85 336.624 466.666 336.624Z" stroke="black"/>
<path d="M533.334 336.624C535.151 336.624 536.624 335.151 536.624 333.334C536.624 331.518 535.151 330.045 533.334 330.045C531.518 330.045 530.045 331.518 530.045 333.334C530.045 335.151 531.518 336.624 533.334 336.624Z" stroke="black"/>
<path d="M600 336.624C601.817 336.624 603.29 335.151 603.29 333.334C603.29 331.518 601.817 330.045 600 330.045C598.184 330.045 596.711 331.518 596.711 333.334C596.711 335.151 598.184 336.624 600 336.624Z" fill="black"/>
<path d="M666.666 336.624C668.483 336.624 669.956 335.151 669.956 333.334C669.956 331.518 668.483 330.045 666.666 330.045C664.85 330.045 663.377 331.518 663.377 333.334C663.377 335.151 664.85 336.624 666.666 336.624Z" fill="black"/>
<path d="M733.334 336.624C735.151 336.624 736.624 335.151 736.624 333.334C736.624 331.518 735.151 330.045 733.334 330.045C731.518 330.045 730.045 331.518 730.045 333.334C730.045 335.151 731.518 336.624 733.334 336.624Z" fill="black"/>
<path d="M800 336.624C801.817 336.624 803.29 335.151 803.29 333.334C803.29 331.518 801.817 330.045 800 330.045C798.184 330.045 796.711 331.518 796.711 333.334C796.711 335.151 798.184 336.624 800 336.624Z" fill="black"/>
<path d="M0.000411272 403.29C1.81714 403.29 3.28989 401.817 3.28989 400C3.28989 398.184 1.81714 396.711 0.000411272 396.711C-1.81631 396.711 -3.28906 398.184 -3.28906 400C-3.28906 401.817 -1.81631 403.29 0.000411272 403.29Z" fill="black"/>
<path d="M66.6664 403.29C68.4832 403.29 69.9559 401.817 69.9559 400C69.9559 398.184 68.4832 396.711 66.6664 396.711C64.8497 396.711 63.377 398.184 63.377 400C63.377 401.817 64.8497 403.29 66.6664 403.29Z" fill="black"/>
<path d="M133.334 403.29C135.151 403.29 136.624 401.817 136.624 400C136.624 398.184 135.151 396.711 133.334 396.711C131.518 396.711 130.045 398.184 130.045 400C130.045 401.817 131.518 403.29 133.334 403.29Z" fill="black"/>
<path d="M200 403.29C201.817 403.29 203.29 401.817 203.29 400C203.29 398.184 201.817 396.711 200 396.711C198.184 396.711 196.711 398.184 196.711 400C196.711 401.817 198.184 403.29 200 403.29Z" fill="black"/>
<path d="M266.666 403.29C268.483 403.29 269.956 401.817 269.956 400C269.956 398.184 268.483 396.711 266.666 396.711C264.85 396.711 263.377 398.184 263.377 400C263.377 401.817 264.85 403.29 266.666 403.29Z" stroke="black"/>
<path d="M333.334 403.29C335.151 403.29 336.624 401.817 336.624 400C336.624 398.184 335.151 396.711 333.334 396.711C331.518 396.711 330.045 398.184 330.045 400C330.045 401.817 331.518 403.29 333.334 403.29Z" fill="black"/>
<path d="M400 403.29C401.817 403.29 403.29 401.817 403.29 400C403.29 398.184 401.817 396.711 400 396.711C398.184 396.711 396.711 398.184 396.711 400C396.711 401.817 398.184 403.29 400 403.29Z" fill="black"/>
<path d="M466.666 403.29C468.483 403.29 469.956 401.817 469.956 400C469.956 398.184 468.483 396.711 466.666 396.711C464.85 396.711 463.377 398.184 463.377 400C463.377 401.817 464.85 403.29 466.666 403.29Z" fill="black"/>
<path d="M533.334 403.29C535.151 403.29 536.624 401.817 536.624 400C536.624 398.184 535.151 396.711 533.334 396.711C531.518 396.711 530.045 398.184 530.045 400C530.045 401.817 531.518 403.29 533.334 403.29Z" stroke="black"/>
<path d="M600 403.29C601.817 403.29 603.29 401.817 603.29 400C603.29 398.184 601.817 396.711 600 396.711C598.184 396.711 596.711 398.184 596.711 400C596.711 401.817 598.184 403.29 600 403.29Z" fill="black"/>
<path d="M666.666 403.29C668.483 403.29 669.956 401.817 669.956 400C669.956 398.184 668.483 396.711 666.666 396.711C664.85 396.711 663.377 398.184 663.377 400C663.377 401.817 664.85 403.29 666.666 403.29Z" fill="black"/>
<path d="M733.334 403.29C735.151 403.29 736.624 401.817 736.624 400C736.624 398.184 735.151 396.711 733.334 396.711C731.518 396.711 730.045 398.184 730.045 400C730.045 401.817 731.518 403.29 733.334 403.29Z" stroke="black"/>
<path d="M800 403.29C801.817 403.29 803.29 401.817 803.29 400C803.29 398.184 801.817 396.711 800 396.711C798.184 396.711 796.711 398.184 796.711 400C796.711 401.817 798.184 403.29 800 403.29Z" fill="black"/>
<path d="M0.000411272 469.956C1.81714 469.956 3.28989 468.483 3.28989 466.666C3.28989 464.85 1.81714 463.377 0.000411272 463.377C-1.81631 463.377 -3.28906 464.85 -3.28906 466.666C-3.28906 468.483 -1.81631 469.956 0.000411272 469.956Z" fill="black"/>
<path d="M66.6664 469.956C68.4832 469.956 69.9559 468.483 69.9559 466.666C69.9559 464.85 68.4832 463.377 66.6664 463.377C64.8497 463.377 63.377 464.85 63.377 466.666C63.377 468.483 64.8497 469.956 66.6664 469.956Z" fill="black"/>
<path d="M133.334 469.956C135.151 469.956 136.624 468.483 136.624 466.666C136.624 464.85 135.151 463.377 133.334 463.377C131.518 463.377 130.045 464.85 130.045 466.666C130.045 468.483 131.518 469.956 133.334 469.956Z" fill="black"/>
<path d="M200 469.956C201.817 469.956 203.29 468.483 203.29 466.666C203.29 464.85 201.817 463.377 200 463.377C198.184 463.377 196.711 464.85 196.711 466.666C196.711 468.483 198.184 469.956 200 469.956Z" stroke="black"/>
<path d="M266.666 469.956C268.483 469.956 269.956 468.483 269.956 466.666C269.956 464.85 268.483 463.377 266.666 463.377C264.85 463.377 263.377 464.85 263.377 466.666C263.377 468.483 264.85 469.956 266.666 469.956Z" fill="black"/>
<path d="M333.334 469.956C335.151 469.956 336.624 468.483 336.624 466.666C336.624 464.85 335.151 463.377 333.334 463.377C331.518 463.377 330.045 464.85 330.045 466.666C330.045 468.483 331.518 469.956 333.334 469.956Z" fill="black"/>
<path d="M400 469.956C401.817 469.956 403.29 468.483 403.29 466.666C403.29 464.85 401.817 463.377 400 463.377C398.184 463.377 396.711 464.85 396.711 466.666C396.711 468.483 398.184 469.956 400 469.956Z" stroke="black"/>
<path d="M466.666 469.956C468.483 469.956 469.956 468.483 469.956 466.666C469.956 464.85 468.483 463.377 466.666 463.377C464.85 463.377 463.377 464.85 463.377 466.666C463.377 468.483 464.85 469.956 466.666 469.956Z" fill="black"/>
<path d="M533.334 469.956C535.151 469.956 536.624 468.483 536.624 466.666C536.624 464.85 535.151 463.377 533.334 463.377C531.518 463.377 530.045 464.85 530.045 466.666C530.045 468.483 531.518 469.956 533.334 469.956Z" fill="black"/>
<path d="M600 469.956C601.817 469.956 603.29 468.483 603.29 466.666C603.29 464.85 601.817 463.377 600 463.377C598.184 463.377 596.711 464.85 596.711 466.666C596.711 468.483 598.184 469.956 600 469.956Z" fill="black"/>
<path d="M666.666 469.956C668.483 469.956 669.956 468.483 669.956 466.666C669.956 464.85 668.483 463.377 666.666 463.377C664.85 463.377 663.377 464.85 663.377 466.666C663.377 468.483 664.85 469.956 666.666 469.956Z" fill="black"/>
<path d="M733.334 469.956C735.151 469.956 736.624 468.483 736.624 466.666C736.624 464.85 735.151 463.377 733.334 463.377C731.518 463.377 730.045 464.85 730.045 466.666C730.045 468.483 731.518 469.956 733.334 469.956Z" fill="black"/>
<path d="M800 469.956C801.817 469.956 803.29 468.483 803.29 466.666C803.29 464.85 801.817 463.377 800 463.377C798.184 463.377 796.711 464.85 796.711 466.666C796.711 468.483 798.184 469.956 800 469.956Z" fill="black"/>
<path d="M0.000411272 536.624C1.81714 536.624 3.28989 535.151 3.28989 533.334C3.28989 531.518 1.81714 530.045 0.000411272 530.045C-1.81631 530.045 -3.28906 531.518 -3.28906 533.334C-3.28906 535.151 -1.81631 536.624 0.000411272 536.624Z" fill="black"/>
<path d="M66.6664 536.624C68.4832 536.624 69.9559 535.151 69.9559 533.334C69.9559 531.518 68.4832 530.045 66.6664 530.045C64.8497 530.045 63.377 531.518 63.377 533.334C63.377 535.151 64.8497 536.624 66.6664 536.624Z" stroke="black"/>
<path d="M133.334 536.624C135.151 536.624 136.624 535.151 136.624 533.334C136.624 531.518 135.151 530.045 133.334 530.045C131.518 530.045 130.045 531.518 130.045 533.334C130.045 535.151 131.518 536.624 133.334 536.624Z" fill="black"/>
<path d="M200 536.624C201.817 536.624 203.29 535.151 203.29 533.334C203.29 531.518 201.817 530.045 200 530.045C198.184 530.045 196.711 531.518 196.711 533.334C196.711 535.151 198.184 536.624 200 536.624Z" fill="black"/>
<path d="M266.666 536.624C268.483 536.624 269.956 535.151 269.956 533.334C269.956 531.518 268.483 530.045 266.666 530.045C264.85 530.045 263.377 531.518 263.377 533.334C263.377 535.151 264.85 536.624 266.666 536.624Z" fill="black"/>
<path d="M333.334 536.624C335.151 536.624 336.624 535.151 336.624 533.334C336.624 531.518 335.151 530.045 333.334 530.045C331.518 530.045 330.045 531.518 330.045 533.334C330.045 535.151 331.518 536.624 333.334 536.624Z" fill="black"/>
<path d="M400 536.624C401.817 536.624 403.29 535.151 403.29 533.334C403.29 531.518 401.817 530.045 400 530.045C398.184 530.045 396.711 531.518 396.711 533.334C396.711 535.151 398.184 536.624 400 536.624Z" stroke="black"/>
<path d="M466.666 536.624C468.483 536.624 469.956 535.151 469.956 533.334C469.956 531.518 468.483 530.045 466.666 530.045C464.85 530.045 463.377 531.518 463.377 533.334C463.377 535.151 464.85 536.624 466.666 536.624Z" fill="black"/>
<path d="M533.334 536.624C535.151 536.624 536.624 535.151 536.624 533.334C536.624 531.518 535.151 530.045 533.334 530.045C531.518 530.045 530.045 531.518 530.045 533.334C530.045 535.151 531.518 536.624 533.334 536.624Z" stroke="black"/>
<path d="M600 536.624C601.817 536.624 603.29 535.151 603.29 533.334C603.29 531.518 601.817 530.045 600 530.045C598.184 530.045 596.711 531.518 596.711 533.334C596.711 535.151 598.184 536.624 600 536.624Z" fill="black"/>
<path d="M666.666 536.624C668.483 536.624 669.956 535.151 669.956 533.334C669.956 531.518 668.483 530.045 666.666 530.045C664.85 530.045 663.377 531.518 663.377 533.334C663.377 535.151 664.85 536.624 666.666 536.624Z" fill="black"/>
<path d="M733.334 536.624C735.151 536.624 736.624 535.151 736.624 533.334C736.624 531.518 735.151 530.045 733.334 530.045C731.518 530.045 730.045 531.518 730.045 533.334C730.045 535.151 731.518 536.624 733.334 536.624Z" stroke="black"/>
<path d="M800 536.624C801.817 536.624 803.29 535.151 803.29 533.334C803.29 531.518 801.817 530.045 800 530.045C798.184 530.045 796.711 531.518 796.711 533.334C796.711 535.151 798.184 536.624 800 536.624Z" fill="black"/>
<path d="M0.000411272 603.29C1.81714 603.29 3.28989 601.817 3.28989 600C3.28989 598.184 1.81714 596.711 0.000411272 596.711C-1.81631 596.711 -3.28906 598.184 -3.28906 600C-3.28906 601.817 -1.81631 603.29 0.000411272 603.29Z" fill="black"/>
<path d="M66.6664 603.29C68.4832 603.29 69.9559 601.817 69.9559 600C69.9559 598.184 68.4832 596.711 66.6664 596.711C64.8497 596.711 63.377 598.184 63.377 600C63.377 601.817 64.8497 603.29 66.6664 603.29Z" fill="black"/>
<path d="M133.334 603.29C135.151 603.29 136.624 601.817 136.624 600C136.624 598.184 135.151 596.711 133.334 596.711C131.518 596.711 130.045 598.184 130.045 600C130.045 601.817 131.518 603.29 133.334 603.29Z" stroke="black"/>
<path d="M200 603.29C201.817 603.29 203.29 601.817 203.29 600C203.29 598.184 201.817 596.711 200 596.711C198.184 596.711 196.711 598.184 196.711 600C196.711 601.817 198.184 603.29 200 603.29Z" fill="black"/>
<path d="M266.666 603.29C268.483 603.29 269.956 601.817 269.956 600C269.956 598.184 268.483 596.711 266.666 596.711C264.85 596.711 263.377 598.184 263.377 600C263.377 601.817 264.85 603.29 266.666 603.29Z" fill="black"/>
<path d="M333.334 603.29C335.151 603.29 336.624 601.817 336.624 600C336.624 598.184 335.151 596.711 333.334 596.711C331.518 596.711 330.045 598.184 330.045 600C330.045 601.817 331.518 603.29 333.334 603.29Z" fill="black"/>
<path d="M400 603.29C401.817 603.29 403.29 601.817 403.29 600C403.29 598.184 401.817 596.711 400 596.711C398.184 596.711 396.711 598.184 396.711 600C396.711 601.817 398.184 603.29 400 603.29Z" fill="black"/>
<path d="M466.666 603.29C468.483 603.29 469.956 601.817 469.956 600C469.956 598.184 468.483 596.711 466.666 596.711C464.85 596.711 463.377 598.184 463.377 600C463.377 601.817 464.85 603.29 466.666 603.29Z" fill="black"/>
<path d="M533.334 603.29C535.151 603.29 536.624 601.817 536.624 600C536.624 598.184 535.151 596.711 533.334 596.711C531.518 596.711 530.045 598.184 530.045 600C530.045 601.817 531.518 603.29 533.334 603.29Z" fill="black"/>
<path d="M600 603.29C601.817 603.29 603.29 601.817 603.29 600C603.29 598.184 601.817 596.711 600 596.711C598.184 596.711 596.711 598.184 596.711 600C596.711 601.817 598.184 603.29 600 603.29Z" fill="black"/>
<path d="M666.666 603.29C668.483 603.29 669.956 601.817 669.956 600C669.956 598.184 668.483 596.711 666.666 596.711C664.85 596.711 663.377 598.184 663.377 600C663.377 601.817 664.85 603.29 666.666 603.29Z" fill="black"/>
<path d="M733.334 603.29C735.151 603.29 736.624 601.817 736.624 600C736.624 598.184 735.151 596.711 733.334 596.711C731.518 596.711 730.045 598.184 730.045 600C730.045 601.817 731.518 603.29 733.334 603.29Z" fill="black"/>
<path d="M800 603.29C801.817 603.29 803.29 601.817 803.29 600C803.29 598.184 801.817 596.711 800 596.711C798.184 596.711 796.711 598.184 796.711 600C796.711 601.817 798.184 603.29 800 603.29Z" fill="black"/>
<path d="M0.000411272 669.956C1.81714 669.956 3.28989 668.483 3.28989 666.666C3.28989 664.85 1.81714 663.377 0.000411272 663.377C-1.81631 663.377 -3.28906 664.85 -3.28906 666.666C-3.28906 668.483 -1.81631 669.956 0.000411272 669.956Z" fill="black"/>
<path d="M66.6664 669.956C68.4832 669.956 69.9559 668.483 69.9559 666.666C69.9559 664.85 68.4832 663.377 66.6664 663.377C64.8497 663.377 63.377 664.85 63.377 666.666C63.377 668.483 64.8497 669.956 66.6664 669.956Z" fill="black"/>
<path d="M133.334 669.956C135.151 669.956 136.624 668.483 136.624 666.666C136.624 664.85 135.151 663.377 133.334 663.377C131.518 663.377 130.045 664.85 130.045 666.666C130.045 668.483 131.518 669.956 133.334 669.956Z" fill="black"/>
<path d="M200 669.956C201.817 669.956 203.29 668.483 203.29 666.666C203.29 664.85 201.817 663.377 200 663.377C198.184 663.377 196.711 664.85 196.711 666.666C196.711 668.483 198.184 669.956 200 669.956Z" fill="black"/>
<path d="M266.666 669.956C268.483 669.956 269.956 668.483 269.956 666.666C269.956 664.85 268.483 663.377 266.666 663.377C264.85 663.377 263.377 664.85 263.377 666.666C263.377 668.483 264.85 669.956 266.666 669.956Z" fill="black"/>
<path d="M333.334 669.956C335.151 669.956 336.624 668.483 336.624 666.666C336.624 664.85 335.151 663.377 333.334 663.377C331.518 663.377 330.045 664.85 330.045 666.666C330.045 668.483 331.518 669.956 333.334 669.956Z" fill="black"/>
<path d="M400 669.956C401.817 669.956 403.29 668.483 403.29 666.666C403.29 664.85 401.817 663.377 400 663.377C398.184 663.377 396.711 664.85 396.711 666.666C396.711 668.483 398.184 669.956 400 669.956Z" fill="black"/>
<path d="M466.666 669.956C468.483 669.956 469.956 668.483 469.956 666.666C469.956 664.85 468.483 663.377 466.666 663.377C464.85 663.377 463.377 664.85 463.377 666.666C463.377 668.483 464.85 669.956 466.666 669.956Z" stroke="black"/>
<path d="M533.334 669.956C535.151 669.956 536.624 668.483 536.624 666.666C536.624 664.85 535.151 663.377 533.334 663.377C531.518 663.377 530.045 664.85 530.045 666.666C530.045 668.483 531.518 669.956 533.334 669.956Z" fill="black"/>
<path d="M600 669.956C601.817 669.956 603.29 668.483 603.29 666.666C603.29 664.85 601.817 663.377 600 663.377C598.184 663.377 596.711 664.85 596.711 666.666C596.711 668.483 598.184 669.956 600 669.956Z" fill="black"/>
<path d="M666.666 669.956C668.483 669.956 669.956 668.483 669.956 666.666C669.956 664.85 668.483 663.377 666.666 663.377C664.85 663.377 663.377 664.85 663.377 666.666C663.377 668.483 664.85 669.956 666.666 669.956Z" fill="black"/>
<path d="M733.334 669.956C735.151 669.956 736.624 668.483 736.624 666.666C736.624 664.85 735.151 663.377 733.334 663.377C731.518 663.377 730.045 664.85 730.045 666.666C730.045 668.483 731.518 669.956 733.334 669.956Z" fill="black"/>
<path d="M800 669.956C801.817 669.956 803.29 668.483 803.29 666.666C803.29 664.85 801.817 663.377 800 663.377C798.184 663.377 796.711 664.85 796.711 666.666C796.711 668.483 798.184 669.956 800 669.956Z" fill="black"/>
<path d="M0.000411272 736.624C1.81714 736.624 3.28989 735.151 3.28989 733.334C3.28989 731.518 1.81714 730.045 0.000411272 730.045C-1.81631 730.045 -3.28906 731.518 -3.28906 733.334C-3.28906 735.151 -1.81631 736.624 0.000411272 736.624Z" fill="black"/>
<path d="M66.6664 736.624C68.4832 736.624 69.9559 735.151 69.9559 733.334C69.9559 731.518 68.4832 730.045 66.6664 730.045C64.8497 730.045 63.377 731.518 63.377 733.334C63.377 735.151 64.8497 736.624 66.6664 736.624Z" fill="black"/>
<path d="M133.334 736.624C135.151 736.624 136.624 735.151 136.624 733.334C136.624 731.518 135.151 730.045 133.334 730.045C131.518 730.045 130.045 731.518 130.045 733.334C130.045 735.151 131.518 736.624 133.334 736.624Z" fill="black"/>
<path d="M200 736.624C201.817 736.624 203.29 735.151 203.29 733.334C203.29 731.518 201.817 730.045 200 730.045C198.184 730.045 196.711 731.518 196.711 733.334C196.711 735.151 198.184 736.624 200 736.624Z" fill="black"/>
<path d="M266.666 736.624C268.483 736.624 269.956 735.151 269.956 733.334C269.956 731.518 268.483 730.045 266.666 730.045C264.85 730.045 263.377 731.518 263.377 733.334C263.377 735.151 264.85 736.624 266.666 736.624Z" fill="black"/>
<path d="M333.334 736.624C335.151 736.624 336.624 735.151 336.624 733.334C336.624 731.518 335.151 730.045 333.334 730.045C331.518 730.045 330.045 731.518 330.045 733.334C330.045 735.151 331.518 736.624 333.334 736.624Z" stroke="black"/>
<path d="M400 736.624C401.817 736.624 403.29 735.151 403.29 733.334C403.29 731.518 401.817 730.045 400 730.045C398.184 730.045 396.711 731.518 396.711 733.334C396.711 735.151 398.184 736.624 400 736.624Z" stroke="black"/>
<path d="M466.666 736.624C468.483 736.624 469.956 735.151 469.956 733.334C469.956 731.518 468.483 730.045 466.666 730.045C464.85 730.045 463.377 731.518 463.377 733.334C463.377 735.151 464.85 736.624 466.666 736.624Z" fill="black"/>
<path d="M533.334 736.624C535.151 736.624 536.624 735.151 536.624 733.334C536.624 731.518 535.151 730.045 533.334 730.045C531.518 730.045 530.045 731.518 530.045 733.334C530.045 735.151 531.518 736.624 533.334 736.624Z" stroke="black"/>
<path d="M600 736.624C601.817 736.624 603.29 735.151 603.29 733.334C603.29 731.518 601.817 730.045 600 730.045C598.184 730.045 596.711 731.518 596.711 733.334C596.711 735.151 598.184 736.624 600 736.624Z" fill="black"/>
<path d="M666.666 736.624C668.483 736.624 669.956 735.151 669.956 733.334C669.956 731.518 668.483 730.045 666.666 730.045C664.85 730.045 663.377 731.518 663.377 733.334C663.377 735.151 664.85 736.624 666.666 736.624Z" fill="black"/>
<path d="M733.334 736.624C735.151 736.624 736.624 735.151 736.624 733.334C736.624 731.518 735.151 730.045 733.334 730.045C731.518 730.045 730.045 731.518 730.045 733.334C730.045 735.151 731.518 736.624 733.334 736.624Z" fill="black"/>
<path d="M800 736.624C801.817 736.624 803.29 735.151 803.29 733.334C803.29 731.518 801.817 730.045 800 730.045C798.184 730.045 796.711 731.518 796.711 733.334C796.711 735.151 798.184 736.624 800 736.624Z" fill="black"/>
<path d="M0.000411272 803.29C1.81714 803.29 3.28989 801.817 3.28989 800C3.28989 798.184 1.81714 796.711 0.000411272 796.711C-1.81631 796.711 -3.28906 798.184 -3.28906 800C-3.28906 801.817 -1.81631 803.29 0.000411272 803.29Z" fill="black"/>
<path d="M66.6664 803.29C68.4832 803.29 69.9559 801.817 69.9559 800C69.9559 798.184 68.4832 796.711 66.6664 796.711C64.8497 796.711 63.377 798.184 63.377 800C63.377 801.817 64.8497 803.29 66.6664 803.29Z" fill="black"/>
<path d="M133.334 803.29C135.151 803.29 136.624 801.817 136.624 800C136.624 798.184 135.151 796.711 133.334 796.711C131.518 796.711 130.045 798.184 130.045 800C130.045 801.817 131.518 803.29 133.334 803.29Z" fill="black"/>
<path d="M200 803.29C201.817 803.29 203.29 801.817 203.29 800C203.29 798.184 201.817 796.711 200 796.711C198.184 796.711 196.711 798.184 196.711 800C196.711 801.817 198.184 803.29 200 803.29Z" fill="black"/>
<path d="M266.666 803.29C268.483 803.29 269.956 801.817 269.956 800C269.956 798.184 268.483 796.711 266.666 796.711C264.85 796.711 263.377 798.184 263.377 800C263.377 801.817 264.85 803.29 266.666 803.29Z" fill="black"/>
<path d="M333.334 803.29C335.151 803.29 336.624 801.817 336.624 800C336.624 798.184 335.151 796.711 333.334 796.711C331.518 796.711 330.045 798.184 330.045 800C330.045 801.817 331.518 803.29 333.334 803.29Z" fill="black"/>
<path d="M400 803.29C401.817 803.29 403.29 801.817 403.29 800C403.29 798.184 401.817 796.711 400 796.711C398.184 796.711 396.711 798.184 396.711 800C396.711 801.817 398.184 803.29 400 803.29Z" fill="black"/>
<path d="M466.666 803.29C468.483 803.29 469.956 801.817 469.956 800C469.956 798.184 468.483 796.711 466.666 796.711C464.85 796.711 463.377 798.184 463.377 800C463.377 801.817 464.85 803.29 466.666 803.29Z" fill="black"/>
<path d="M533.334 803.29C535.151 803.29 536.624 801.817 536.624 800C536.624 798.184 535.151 796.711 533.334 796.711C531.518 796.711 530.045 798.184 530.045 800C530.045 801.817 531.518 803.29 533.334 803.29Z" fill="black"/>
<path d="M600 803.29C601.817 803.29 603.29 801.817 603.29 800C603.29 798.184 601.817 796.711 600 796.711C598.184 796.711 596.711 798.184 596.711 800C596.711 801.817 598.184 803.29 600 803.29Z" fill="black"/>
<path d="M666.666 803.29C668.483 803.29 669.956 801.817 669.956 800C669.956 798.184 668.483 796.711 666.666 796.711C664.85 796.711 663.377 798.184 663.377 800C663.377 801.817 664.85 803.29 666.666 803.29Z" fill="black"/>
<path d="M733.334 803.29C735.151 803.29 736.624 801.817 736.624 800C736.624 798.184 735.151 796.711 733.334 796.711C731.518 796.711 730.045 798.184 730.045 800C730.045 801.817 731.518 803.29 733.334 803.29Z" fill="black"/>
<path d="M800 803.29C801.817 803.29 803.29 801.817 803.29 800C803.29 798.184 801.817 796.711 800 796.711C798.184 796.711 796.711 798.184 796.711 800C796.711 801.817 798.184 803.29 800 803.29Z" fill="black"/>
</g>
<defs>
<clipPath id="clip0_650_84">
<rect width="800" height="800" fill="white"/>
</clipPath>
</defs>
</svg>
